<svg xmlns="http://www.w3.org/2000/svg" viewBox="0 0 32 32" fill="none">
  <circle cx="16" cy="16" r="15" fill="#1b3a6b"/>
  <path d="M16 6c-3.5 0-6.5 2-7.5 5-.8 2.5-.2 5 1.2 7 .8 1.2 1.3 2.5 1.3 4v2h10v-2c0-1.5.5-2.8 1.3-4 1.4-2 2-4.5 1.2-7-1-3-4-5-7.5-5z" fill="#fff" opacity="0.9"/>
  <path d="M16 6c0 3-1.5 5.5-3 7.5S10 17 10 20M16 6c0 3 1.5 5.5 3 7.5s3 3.5 3 6.5M13 11c1 .5 2 .5 3 0M16 11c1 .5 2 .5 3 0" stroke="#1b3a6b" stroke-width="0.8" fill="none" stroke-linecap="round"/>
  <rect x="12" y="24" width="8" height="2" rx="1" fill="#e84040"/>
</svg>
